<svg xmlns="http://www.w3.org/2000/svg" viewBox="0 0 32 32" width="32" height="32">
  <defs>
    <linearGradient id="fractalGradient" x1="0%" y1="0%" x2="100%" y2="100%">
      <stop offset="0%" style="stop-color:#4F46E5;stop-opacity:1" />
      <stop offset="50%" style="stop-color:#7C3AED;stop-opacity:1" />
      <stop offset="100%" style="stop-color:#EC4899;stop-opacity:1" />
    </linearGradient>
    <linearGradient id="waveGradient" x1="0%" y1="0%" x2="100%" y2="0%">
      <stop offset="0%" style="stop-color:#10B981;stop-opacity:0.8" />
      <stop offset="100%" style="stop-color:#3B82F6;stop-opacity:0.8" />
    </linearGradient>
  </defs>
  
  <!-- 背景圆形 -->
  <circle cx="16" cy="16" r="15" fill="url(#fractalGradient)" stroke="#1F2937" stroke-width="1"/>
  
  <!-- 谢尔宾斯基三角形分形图案 -->
  <g fill="none" stroke="#FFFFFF" stroke-width="0.5" opacity="0.9">
    <!-- 外层三角形 -->
    <path d="M 8 24 L 24 24 L 16 8 Z"/>
    <!-- 内层三角形 -->
    <path d="M 12 20 L 20 20 L 16 12 Z"/>
    <!-- 更内层三角形 -->
    <path d="M 14 18 L 18 18 L 16 14 Z"/>
  </g>
  
  <!-- 声波线条 -->
  <g stroke="url(#waveGradient)" stroke-width="1.5" fill="none" opacity="0.8">
    <!-- 左侧声波 -->
    <path d="M 6 12 Q 8 10 10 12 Q 12 14 14 12" stroke-linecap="round"/>
    <path d="M 6 16 Q 8 14 10 16 Q 12 18 14 16" stroke-linecap="round"/>
    <path d="M 6 20 Q 8 18 10 20 Q 12 22 14 20" stroke-linecap="round"/>
    
    <!-- 右侧声波 -->
    <path d="M 18 12 Q 20 10 22 12 Q 24 14 26 12" stroke-linecap="round"/>
    <path d="M 18 16 Q 20 14 22 16 Q 24 18 26 16" stroke-linecap="round"/>
    <path d="M 18 20 Q 20 18 22 20 Q 24 22 26 20" stroke-linecap="round"/>
  </g>
  
  <!-- 中心点 -->
  <circle cx="16" cy="16" r="1" fill="#FFFFFF" opacity="0.9"/>
</svg> 